HIERARCHY
ROOT Hips
{
	OFFSET -3.958830 18.904000 13.208200
	CHANNELS 6 Xposition Yposition Zposition Zrotation Yrotation Xrotation 
	JOINT LHipJoint
	{
		OFFSET 0.000000 0.000000 0.000000
		CHANNELS 3 Zrotation Yrotation Xrotation
		JOINT LeftUpLeg
		{
			OFFSET 1.800000 -1.400000 0.085000
			CHANNELS 3 Zrotation Yrotation Xrotation
			JOINT LeftLeg
			{
				OFFSET 2.215000 -6.000000 0.000000
				CHANNELS 3 Zrotation Yrotation Xrotation
				JOINT LeftFoot
				{
					OFFSET 2.500000 -6.900000 0.000000
					CHANNELS 3 Zrotation Yrotation Xrotation
					JOINT LeftToeBase
					{
						OFFSET 0.200000 -0.500000 1.950000
						CHANNELS 3 Zrotation Yrotation Xrotation
						End Site
						{
							OFFSET 0.000000 0.000000 0.000000
						}
					}
				}
			}
		}
	}
	JOINT RHipJoint
	{
		OFFSET 0.000000 0.000000 0.000000
		CHANNELS 3 Zrotation Yrotation Xrotation
		JOINT RightUpLeg
		{
			OFFSET -1.800000 -1.400000 0.085000
			CHANNELS 3 Zrotation Yrotation Xrotation
			JOINT RightLeg
			{
				OFFSET -2.215000 -6.000000 0.000000
				CHANNELS 3 Zrotation Yrotation Xrotation
				JOINT RightFoot
				{
					OFFSET -2.500000 -6.900000 0.000000
					CHANNELS 3 Zrotation Yrotation Xrotation
					JOINT RightToeBase
					{
						OFFSET -0.200000 -0.500000 1.950000
						CHANNELS 3 Zrotation Yrotation Xrotation
						End Site
						{
							OFFSET 0.000000 0.000000 0.000000
						}
					}
				}
			}
		}
	}
	JOINT LowerBack
	{
		OFFSET 0.000000 0.000000 0.000000
		CHANNELS 3 Zrotation Yrotation Xrotation
		JOINT Spine
		{
			OFFSET -0.087000 1.940000 -0.288900
			CHANNELS 3 Zrotation Yrotation Xrotation
			JOINT Spine1
			{
				OFFSET 0.000000 1.950000 0.060000
				CHANNELS 3 Zrotation Yrotation Xrotation
				JOINT Neck
				{
					OFFSET 0.000000 0.000000 0.000000
					CHANNELS 3 Zrotation Yrotation Xrotation
					JOINT Neck1
					{
						OFFSET 0.000000 1.600000 0.340000
						CHANNELS 3 Zrotation Yrotation Xrotation
						JOINT Head
						{
							OFFSET 0.000000 1.667000 -0.240000
							CHANNELS 3 Zrotation Yrotation Xrotation
							End Site
							{
								OFFSET 0.000000 0.000000 0.000000
							}
						}
					}
				}
				JOINT LeftShoulder
				{
					OFFSET 0.000000 0.000000 0.000000
					CHANNELS 3 Zrotation Yrotation Xrotation
					JOINT LeftArm
					{
						OFFSET 2.700000 1.550000 -0.730000
						CHANNELS 3 Zrotation Yrotation Xrotation
						JOINT LeftForeArm
						{
							OFFSET 5.450000 0.000000 0.000000
							CHANNELS 3 Zrotation Yrotation Xrotation
							JOINT LeftHand
							{
								OFFSET 3.450000 0.000000 0.000000
								CHANNELS 3 Zrotation Yrotation Xrotation
								JOINT LeftHandIndex1
								{
									OFFSET 0.750000 0.000000 0.000000
									CHANNELS 3 Zrotation Yrotation Xrotation
									End Site
									{
										OFFSET 0.000000 0.000000 0.000000
									}
								}
							}
						}
					}
				}
				JOINT RightShoulder
				{
					OFFSET 0.000000 0.000000 0.000000
					CHANNELS 3 Zrotation Yrotation Xrotation
					JOINT RightArm
					{
						OFFSET -2.700000 1.550000 -0.730000
						CHANNELS 3 Zrotation Yrotation Xrotation
						JOINT RightForeArm
						{
							OFFSET -5.450000 0.000000 0.000000
							CHANNELS 3 Zrotation Yrotation Xrotation
							JOINT RightHand
							{
								OFFSET -3.450000 0.000000 0.000000
								CHANNELS 3 Zrotation Yrotation Xrotation
								JOINT RightHandIndex1
								{
									OFFSET -0.750000 0.000000 0.000000
									CHANNELS 3 Zrotation Yrotation Xrotation
									End Site
									{
										OFFSET 0.000000 0.000000 0.000000
									}
								}
							}
						}
					}
				}
			}
		}
	}
}
MOTION
Frames: 7
Frame Time: 0.016667
2.031720 17.685450 -0.801540 -3.264157 19.170579 11.189824 -15.120387 13.043526 2.750824 0.031732 -2.097469 -13.621095 -7.264120 6.348017 17.539450 -0.541992 4.280828 3.190744 0.120780 -0.318850 0.236190 18.439817 -9.452222 4.583606 0.670896 10.075614 -42.450139 6.185145 -9.734535 46.024782 -0.593288 -6.430847 2.251998 -0.117600 0.278990 0.025190 -4.182618 -2.674665 -8.492283 14.811074 -6.700474 19.853294 -5.168201 -3.611624 2.743207 2.712567 -1.442363 -9.515768 -7.810829 0.633534 48.609357 -2.804830 -1.918020 0.711060 -21.915096 -8.769534 2.176992 -46.788746 -4.167978 -6.316075 -33.022194 -21.795683 2.904097 -3.738803 2.844625 0.571330 0.120870 -0.166900 0.062050 16.355668 8.207933 6.449122 51.787201 -5.731606 -16.076058 35.689940 37.587901 5.937398 2.124516 -1.350426 -0.379690 0.279510 0.106990 -0.274540 
2.067200 17.692920 -0.739800 -3.156575 18.355633 10.610097 -15.114162 13.039999 2.782920 0.135781 -2.244430 -13.654038 -7.941720 6.857887 19.304435 -0.490089 4.531656 3.083838 0.155120 -0.271010 0.256510 18.440195 -9.479135 4.552218 1.465784 10.120591 -41.788753 5.814577 -9.113383 44.604813 -0.551862 -6.076829 2.373110 -0.099410 0.248910 0.022080 -4.181970 -2.623963 -8.489082 14.748272 -6.524015 20.005427 -5.212426 -3.421551 3.037371 2.705805 -1.481421 -9.662140 -8.041347 0.659351 49.388851 -2.780950 -2.002780 -0.124230 -21.444559 -8.922282 2.284224 -46.714531 -4.258149 -6.315094 -33.708620 -21.533580 2.916122 -3.710751 2.845674 0.586130 0.097670 -0.137700 0.070640 15.912438 8.491177 6.519066 52.049501 -5.342441 -16.069874 35.853659 37.449773 5.909644 2.127750 -1.348002 -0.363640 0.282230 0.085070 -0.274070 
2.130460 17.714340 -0.645240 -2.705033 17.242156 9.827751 -15.117085 13.049877 2.886985 0.102296 -2.511976 -13.589575 -9.355918 7.758686 21.699197 -0.387420 4.994174 2.902747 0.164670 -0.249700 0.263890 18.423587 -9.535026 4.434892 2.678756 9.811812 -40.367324 5.152646 -8.040634 41.557661 -0.434132 -5.392130 2.605451 -0.094290 0.232020 0.011450 -4.142728 -2.609196 -8.480837 14.366906 -6.245214 20.104027 -5.003956 -3.199858 3.355809 2.605362 -1.761599 -9.891968 -8.920126 0.935888 50.703643 -2.600660 -2.287700 -0.353810 -21.003171 -8.998993 2.439517 -46.669069 -4.231867 -6.386994 -34.153967 -21.822147 3.036418 -3.692473 2.835628 0.591550 0.077600 -0.119920 0.068090 15.724991 8.934046 6.636818 51.692079 -5.026241 -15.882987 35.952590 37.015222 5.833680 2.142977 -1.330047 -0.354360 0.292150 0.079510 -0.268770 
2.207010 17.740200 -0.528920 -2.484006 16.134112 8.249610 -15.109399 13.076177 2.994667 0.749454 -2.805844 -13.061837 -11.027898 8.962171 24.569440 -0.254938 5.628149 2.649390 0.220160 -0.181060 0.312500 18.406548 -9.628137 4.275708 3.848304 9.339296 -37.982980 5.388101 -7.430892 38.271451 -0.370509 -4.779435 2.812047 -0.069980 0.174070 0.006490 -4.121887 -2.564424 -8.486283 14.431119 -6.189351 20.783263 -5.204202 -3.025062 3.530071 2.754906 -1.743929 -10.213106 -9.249688 1.243217 53.175190 -2.459840 -2.269920 -1.524360 -21.323357 -9.508745 2.683513 -45.874623 -3.896625 -6.588163 -34.605637 -22.350508 3.201520 -3.634447 2.830015 0.627990 0.031250 -0.066870 0.069180 15.793497 9.569348 6.798360 50.990288 -4.630899 -15.578537 35.971633 36.350612 5.697960 2.156183 -1.309957 -0.331030 0.293710 0.047970 -0.276510 
2.288410 17.744990 -0.391120 -2.248574 15.232407 6.820215 -15.089665 13.027030 3.128038 1.721586 -3.242319 -12.773071 -13.348691 10.507922 27.409096 -0.059531 6.391773 2.346528 0.268630 -0.113740 0.336570 18.416490 -9.699146 4.095534 5.006325 8.747332 -35.598065 5.672417 -6.851229 34.681947 -0.300686 -4.183666 3.008003 -0.051370 0.119250 0.018200 -4.151852 -2.464743 -8.484122 14.828763 -6.268137 20.732272 -5.649399 -3.023811 3.845959 2.845984 -1.783314 -10.533617 -9.625766 1.658842 55.263611 -2.098550 -2.296690 -1.778140 -21.288884 -9.938416 2.944517 -45.182475 -3.717728 -6.544437 -35.483825 -21.918415 3.219281 -3.586965 2.874428 0.631860 -0.004140 -0.024200 0.072750 15.579202 10.043086 6.964489 50.642474 -4.318929 -15.258111 36.344889 35.511332 5.571585 2.180165 -1.326162 -0.284640 0.259610 0.018560 -0.268890 
2.377020 17.722750 -0.249540 -1.799416 14.683865 5.804348 -15.083677 12.955613 3.284562 2.567674 -3.800553 -12.833820 -15.632360 12.116968 30.068010 0.126840 7.208314 2.055315 0.274440 -0.116320 0.343100 18.425639 -9.707462 3.920699 5.761646 8.112353 -33.530327 6.395547 -6.491195 31.053215 -0.218273 -3.681070 3.188706 -0.056070 0.106930 0.020120 -4.162620 -2.456757 -8.488165 15.247868 -6.454798 20.072591 -5.826736 -3.200849 4.051214 2.901073 -2.223146 -10.906794 -10.819003 2.310080 56.450096 -2.266430 -2.318720 -1.071710 -20.950938 -10.269947 3.236931 -45.481372 -3.566172 -6.390157 -35.601703 -20.790397 2.874600 -3.576426 2.881079 0.635870 -0.013110 -0.020760 0.070340 15.129047 10.710802 7.214353 50.039535 -3.949434 -14.676365 37.049371 33.938851 5.370441 2.198599 -1.328045 -0.277630 0.246910 0.016220 -0.271180 
2.457060 17.686390 -0.100330 -1.388015 14.131042 4.950575 -15.060817 12.834369 3.407206 3.571546 -4.245640 -12.870047 -17.691563 13.747754 32.467629 0.300192 8.003456 1.791871 0.261070 -0.134930 0.333930 18.464650 -9.713948 3.778969 7.003486 7.568741 -31.359619 6.661975 -5.888773 27.051218 -0.130641 -3.140177 3.400963 -0.063080 0.117490 0.004360 -4.235749 -2.340802 -8.478900 15.875545 -6.516012 18.984250 -6.467786 -3.254156 4.556279 2.937561 -2.465417 -11.337969 -11.608372 2.783642 57.666625 -2.205990 -2.437210 -0.404170 -20.188293 -10.702092 3.609486 -45.416015 -3.528010 -6.130124 -35.861800 -19.818215 2.629507 -3.574340 2.851277 0.648750 -0.015630 -0.025650 0.072580 14.244703 11.272746 7.541687 50.452272 -3.610269 -14.445186 37.199111 33.245238 5.224999 2.201135 -1.307878 -0.295610 0.267860 0.023770 -0.273490 
